<svg xmlns="http://www.w3.org/2000/svg" xmlns:xlink="http://www.w3.org/1999/xlink" width="500" zoomAndPan="magnify" viewBox="0 0 375 374.999991" height="500" preserveAspectRatio="xMidYMid meet" version="1.0"><defs><g/></defs><path fill="#ff3131" d="M 33.050781 141.394531 C 36.910156 143.464844 40.632812 150.507812 39.390625 153.683594 C 38.976562 154.789062 41.042969 157.828125 44.214844 160.867188 L 49.867188 166.25 L 45.871094 160.867188 L 41.871094 155.480469 L 47.25 156.308594 C 66.6875 159.484375 77.164062 183.789062 66.546875 200.910156 C 64.34375 204.5 61.171875 208.230469 59.65625 209.335938 C 56.761719 211.128906 56.347656 210.851562 50.96875 201.464844 C 47.9375 195.941406 45.316406 191.246094 45.316406 190.96875 C 45.316406 190.691406 48.765625 190.417969 52.898438 190.417969 C 57.035156 190.417969 60.484375 190.003906 60.484375 189.3125 C 60.484375 187.101562 35.390625 158.65625 33.460938 158.65625 C 30.292969 158.65625 21.882812 149.816406 21.882812 146.503906 C 21.882812 143.328125 25.328125 139.324219 27.808594 139.324219 C 28.773438 139.460938 31.117188 140.289062 33.050781 141.394531 Z M 33.050781 141.394531 " fill-opacity="1" fill-rule="nonzero"/><path fill="#ff3131" d="M 31.394531 169.566406 C 34.566406 174.8125 37.046875 179.507812 37.046875 179.921875 C 37.046875 180.335938 33.601562 180.75 29.464844 180.75 C 25.328125 180.75 21.882812 181.164062 21.882812 181.714844 C 21.882812 182.40625 27.535156 189.449219 34.425781 197.597656 C 43.527344 208.507812 47.800781 212.511719 50.144531 212.511719 C 52.210938 212.511719 54.96875 214.859375 58.828125 219.691406 C 65.722656 228.527344 64.894531 230.738281 57.863281 222.453125 C 55.105469 219.277344 52.347656 216.652344 51.796875 216.652344 C 49.730469 216.652344 50.96875 219.828125 55.242188 225.078125 C 57.585938 227.976562 59.105469 230.875 58.550781 231.429688 C 58.140625 231.980469 56.761719 231.152344 55.796875 229.632812 C 51.246094 223.144531 48.488281 220.382812 46.835938 220.933594 C 45.730469 221.347656 46.835938 223.832031 50.003906 227.976562 C 52.761719 231.566406 54.417969 234.742188 53.867188 235.15625 C 51.660156 236.398438 42.285156 222.175781 42.972656 218.722656 C 43.386719 216.238281 42.148438 214.167969 38.011719 210.164062 L 32.496094 204.914062 L 36.359375 210.023438 C 39.941406 215.132812 40.078125 215.273438 37.183594 215.273438 C 35.53125 215.273438 31.394531 213.890625 27.949219 212.234375 C 16.917969 207.125 9.613281 193.59375 11.542969 181.441406 C 12.507812 174.8125 18.988281 163.765625 22.984375 161.554688 C 25.464844 160.3125 26.433594 161.140625 31.394531 169.566406 Z M 31.394531 169.566406 " fill-opacity="1" fill-rule="nonzero"/><g fill="#ff3131" fill-opacity="1"><g transform="translate(73.016814, 208.030956)"><g><path d="M 15.875 0.765625 C 11.945312 0.765625 8.921875 -0.457031 6.796875 -2.90625 C 4.671875 -5.351562 3.609375 -8.9375 3.609375 -13.65625 L 3.609375 -31.359375 L 11.625 -31.359375 L 11.625 -14.40625 C 11.625 -11.71875 12.171875 -9.65625 13.265625 -8.21875 C 14.367188 -6.78125 16.097656 -6.0625 18.453125 -6.0625 C 20.691406 -6.0625 22.535156 -6.863281 23.984375 -8.46875 C 25.441406 -10.070312 26.171875 -12.304688 26.171875 -15.171875 L 26.171875 -31.359375 L 34.265625 -31.359375 L 34.265625 0 L 27.125 0 L 26.484375 -5.3125 C 25.515625 -3.457031 24.113281 -1.976562 22.28125 -0.875 C 20.445312 0.21875 18.3125 0.765625 15.875 0.765625 Z M 15.875 0.765625 "/></g></g></g><g fill="#ff3131" fill-opacity="1"><g transform="translate(111.450269, 208.030956)"><g><path d="M 8.46875 -36.21875 C 7 -36.21875 5.785156 -36.660156 4.828125 -37.546875 C 3.878906 -38.429688 3.40625 -39.550781 3.40625 -40.90625 C 3.40625 -42.25 3.878906 -43.351562 4.828125 -44.21875 C 5.785156 -45.082031 7 -45.515625 8.46875 -45.515625 C 9.945312 -45.515625 11.160156 -45.082031 12.109375 -44.21875 C 13.054688 -43.351562 13.53125 -42.25 13.53125 -40.90625 C 13.53125 -39.550781 13.054688 -38.429688 12.109375 -37.546875 C 11.160156 -36.660156 9.945312 -36.21875 8.46875 -36.21875 Z M 4.421875 0 L 4.421875 -31.359375 L 12.515625 -31.359375 L 12.515625 0 Z M 4.421875 0 "/></g></g></g><g fill="#ff3131" fill-opacity="1"><g transform="translate(128.32811, 208.030956)"><g><path d="M 19.46875 0.765625 C 16.269531 0.765625 13.445312 0.0703125 11 -1.3125 C 8.550781 -2.707031 6.617188 -4.648438 5.203125 -7.140625 C 3.796875 -9.628906 3.09375 -12.472656 3.09375 -15.671875 C 3.09375 -18.878906 3.796875 -21.722656 5.203125 -24.203125 C 6.617188 -26.691406 8.550781 -28.628906 11 -30.015625 C 13.445312 -31.410156 16.269531 -32.109375 19.46875 -32.109375 C 23.476562 -32.109375 26.851562 -31.066406 29.59375 -28.984375 C 32.332031 -26.898438 34.078125 -24.023438 34.828125 -20.359375 L 26.296875 -20.359375 C 25.878906 -21.867188 25.046875 -23.054688 23.796875 -23.921875 C 22.554688 -24.785156 21.09375 -25.21875 19.40625 -25.21875 C 17.175781 -25.21875 15.28125 -24.375 13.71875 -22.6875 C 12.15625 -21.007812 11.375 -18.671875 11.375 -15.671875 C 11.375 -12.679688 12.15625 -10.34375 13.71875 -8.65625 C 15.28125 -6.96875 17.175781 -6.125 19.40625 -6.125 C 21.09375 -6.125 22.554688 -6.546875 23.796875 -7.390625 C 25.046875 -8.234375 25.878906 -9.4375 26.296875 -11 L 34.828125 -11 C 34.078125 -7.457031 32.332031 -4.609375 29.59375 -2.453125 C 26.851562 -0.304688 23.476562 0.765625 19.46875 0.765625 Z M 19.46875 0.765625 "/></g></g></g><g fill="#ff3131" fill-opacity="1"><g transform="translate(166.255857, 208.030956)"><g><path d="M 4.109375 0 L 4.109375 -45.515625 L 12.203125 -45.515625 L 12.203125 -18.65625 L 23.328125 -31.359375 L 32.9375 -31.359375 L 20.109375 -17.0625 L 35.015625 0 L 24.90625 0 L 12.203125 -15.734375 L 12.203125 0 Z M 4.109375 0 "/></g></g></g><g fill="#ff3131" fill-opacity="1"><g transform="translate(202.160782, 208.030956)"><g/></g></g><g fill="#ff3131" fill-opacity="1"><g transform="translate(217.20546, 208.030956)"><g><path d="M 4.296875 0 L 4.296875 -44.25 L 22.0625 -44.25 C 26.65625 -44.25 30.160156 -43.1875 32.578125 -41.0625 C 35.003906 -38.9375 36.21875 -36.207031 36.21875 -32.875 C 36.21875 -30.09375 35.46875 -27.867188 33.96875 -26.203125 C 32.476562 -24.535156 30.660156 -23.410156 28.515625 -22.828125 C 31.046875 -22.316406 33.128906 -21.0625 34.765625 -19.0625 C 36.410156 -17.0625 37.234375 -14.734375 37.234375 -12.078125 C 37.234375 -8.578125 35.96875 -5.6875 33.4375 -3.40625 C 30.914062 -1.132812 27.335938 0 22.703125 0 Z M 12.390625 -25.671875 L 20.859375 -25.671875 C 23.140625 -25.671875 24.890625 -26.195312 26.109375 -27.25 C 27.328125 -28.300781 27.9375 -29.796875 27.9375 -31.734375 C 27.9375 -33.585938 27.335938 -35.050781 26.140625 -36.125 C 24.941406 -37.195312 23.140625 -37.734375 20.734375 -37.734375 L 12.390625 -37.734375 Z M 12.390625 -6.578125 L 21.4375 -6.578125 C 23.832031 -6.578125 25.691406 -7.132812 27.015625 -8.25 C 28.347656 -9.363281 29.015625 -10.929688 29.015625 -12.953125 C 29.015625 -15.023438 28.316406 -16.648438 26.921875 -17.828125 C 25.535156 -19.003906 23.664062 -19.59375 21.3125 -19.59375 L 12.390625 -19.59375 Z M 12.390625 -6.578125 "/></g></g></g><g fill="#ff3131" fill-opacity="1"><g transform="translate(257.092808, 208.030956)"><g><path d="M 8.46875 -36.21875 C 7 -36.21875 5.785156 -36.660156 4.828125 -37.546875 C 3.878906 -38.429688 3.40625 -39.550781 3.40625 -40.90625 C 3.40625 -42.25 3.878906 -43.351562 4.828125 -44.21875 C 5.785156 -45.082031 7 -45.515625 8.46875 -45.515625 C 9.945312 -45.515625 11.160156 -45.082031 12.109375 -44.21875 C 13.054688 -43.351562 13.53125 -42.25 13.53125 -40.90625 C 13.53125 -39.550781 13.054688 -38.429688 12.109375 -37.546875 C 11.160156 -36.660156 9.945312 -36.21875 8.46875 -36.21875 Z M 4.421875 0 L 4.421875 -31.359375 L 12.515625 -31.359375 L 12.515625 0 Z M 4.421875 0 "/></g></g></g><g fill="#ff3131" fill-opacity="1"><g transform="translate(273.970649, 208.030956)"><g><path d="M 18.078125 0 C 14.796875 0 12.160156 -0.796875 10.171875 -2.390625 C 8.191406 -3.992188 7.203125 -6.84375 7.203125 -10.9375 L 7.203125 -24.59375 L 1.828125 -24.59375 L 1.828125 -31.359375 L 7.203125 -31.359375 L 8.15625 -39.765625 L 15.296875 -39.765625 L 15.296875 -31.359375 L 23.765625 -31.359375 L 23.765625 -24.59375 L 15.296875 -24.59375 L 15.296875 -10.875 C 15.296875 -9.351562 15.625 -8.304688 16.28125 -7.734375 C 16.9375 -7.171875 18.0625 -6.890625 19.65625 -6.890625 L 23.578125 -6.890625 L 23.578125 0 Z M 18.078125 0 "/></g></g></g><g fill="#ff3131" fill-opacity="1"><g transform="translate(300.583277, 208.030956)"><g><path d="M 19.34375 0.765625 C 16.1875 0.765625 13.382812 0.09375 10.9375 -1.25 C 8.488281 -2.601562 6.566406 -4.503906 5.171875 -6.953125 C 3.785156 -9.398438 3.09375 -12.222656 3.09375 -15.421875 C 3.09375 -18.671875 3.773438 -21.554688 5.140625 -24.078125 C 6.515625 -26.609375 8.414062 -28.578125 10.84375 -29.984375 C 13.269531 -31.398438 16.125 -32.109375 19.40625 -32.109375 C 22.476562 -32.109375 25.195312 -31.429688 27.5625 -30.078125 C 29.925781 -28.734375 31.769531 -26.890625 33.09375 -24.546875 C 34.425781 -22.210938 35.09375 -19.613281 35.09375 -16.75 C 35.09375 -16.289062 35.078125 -15.804688 35.046875 -15.296875 C 35.023438 -14.796875 34.992188 -14.269531 34.953125 -13.71875 L 11.125 -13.71875 C 11.289062 -11.269531 12.144531 -9.347656 13.6875 -7.953125 C 15.226562 -6.566406 17.09375 -5.875 19.28125 -5.875 C 20.925781 -5.875 22.304688 -6.242188 23.421875 -6.984375 C 24.535156 -7.722656 25.367188 -8.679688 25.921875 -9.859375 L 34.140625 -9.859375 C 33.546875 -7.878906 32.5625 -6.078125 31.1875 -4.453125 C 29.820312 -2.828125 28.140625 -1.550781 26.140625 -0.625 C 24.140625 0.300781 21.875 0.765625 19.34375 0.765625 Z M 19.40625 -25.546875 C 17.425781 -25.546875 15.675781 -24.984375 14.15625 -23.859375 C 12.644531 -22.742188 11.675781 -21.050781 11.25 -18.78125 L 26.875 -18.78125 C 26.738281 -20.84375 25.972656 -22.484375 24.578125 -23.703125 C 23.191406 -24.929688 21.46875 -25.546875 19.40625 -25.546875 Z M 19.40625 -25.546875 "/></g></g></g><g fill="#ff3131" fill-opacity="1"><g transform="translate(338.384584, 208.030956)"><g><path d="M 17.0625 0.765625 C 14.28125 0.765625 11.835938 0.3125 9.734375 -0.59375 C 7.628906 -1.5 5.941406 -2.753906 4.671875 -4.359375 C 3.410156 -5.960938 2.65625 -7.816406 2.40625 -9.921875 L 10.5625 -9.921875 C 10.8125 -8.703125 11.492188 -7.660156 12.609375 -6.796875 C 13.722656 -5.929688 15.164062 -5.5 16.9375 -5.5 C 18.707031 -5.5 20.003906 -5.859375 20.828125 -6.578125 C 21.648438 -7.296875 22.0625 -8.117188 22.0625 -9.046875 C 22.0625 -10.390625 21.46875 -11.300781 20.28125 -11.78125 C 19.101562 -12.269531 17.460938 -12.75 15.359375 -13.21875 C 14.015625 -13.507812 12.644531 -13.863281 11.25 -14.28125 C 9.863281 -14.707031 8.585938 -15.242188 7.421875 -15.890625 C 6.265625 -16.546875 5.328125 -17.390625 4.609375 -18.421875 C 3.898438 -19.460938 3.546875 -20.738281 3.546875 -22.25 C 3.546875 -25.03125 4.648438 -27.367188 6.859375 -29.265625 C 9.066406 -31.160156 12.175781 -32.109375 16.1875 -32.109375 C 19.894531 -32.109375 22.851562 -31.242188 25.0625 -29.515625 C 27.28125 -27.796875 28.597656 -25.414062 29.015625 -22.375 L 21.375 -22.375 C 20.90625 -24.695312 19.15625 -25.859375 16.125 -25.859375 C 14.601562 -25.859375 13.429688 -25.5625 12.609375 -24.96875 C 11.785156 -24.382812 11.375 -23.648438 11.375 -22.765625 C 11.375 -21.835938 11.984375 -21.097656 13.203125 -20.546875 C 14.429688 -19.992188 16.054688 -19.488281 18.078125 -19.03125 C 20.273438 -18.519531 22.289062 -17.957031 24.125 -17.34375 C 25.957031 -16.738281 27.421875 -15.832031 28.515625 -14.625 C 29.609375 -13.425781 30.15625 -11.710938 30.15625 -9.484375 C 30.195312 -7.546875 29.691406 -5.796875 28.640625 -4.234375 C 27.585938 -2.671875 26.066406 -1.445312 24.078125 -0.5625 C 22.097656 0.320312 19.757812 0.765625 17.0625 0.765625 Z M 17.0625 0.765625 "/></g></g></g></svg>