<svg xmlns="http://www.w3.org/2000/svg" xmlns:xlink="http://www.w3.org/1999/xlink" width="500" zoomAndPan="magnify" viewBox="0 0 375 374.999991" height="500" preserveAspectRatio="xMidYMid meet" version="1.0"><path fill="#ff3131" d="M 161.808594 40.699219 C 174.070312 47.269531 185.890625 69.597656 181.949219 79.667969 C 180.636719 83.167969 187.203125 92.800781 197.277344 102.433594 L 215.226562 119.507812 L 202.53125 102.433594 L 189.832031 85.359375 L 206.910156 87.984375 C 268.644531 98.054688 301.921875 175.113281 268.207031 229.402344 C 261.203125 240.785156 251.132812 252.605469 246.316406 256.109375 C 237.121094 261.800781 235.808594 260.925781 218.730469 231.152344 C 209.097656 213.640625 200.777344 198.753906 200.777344 197.878906 C 200.777344 197.003906 211.726562 196.128906 224.859375 196.128906 C 237.996094 196.128906 248.941406 194.8125 248.941406 192.625 C 248.941406 185.621094 169.253906 95.429688 163.121094 95.429688 C 153.050781 95.429688 126.34375 67.40625 126.34375 56.902344 C 126.34375 46.832031 137.289062 34.132812 145.171875 34.132812 C 148.234375 34.570312 155.679688 37.199219 161.808594 40.699219 Z M 161.808594 40.699219 " fill-opacity="1" fill-rule="nonzero"/><path fill="#ff3131" d="M 156.554688 130.015625 C 166.625 146.652344 174.507812 161.539062 174.507812 162.851562 C 174.507812 164.167969 163.5625 165.480469 150.425781 165.480469 C 137.289062 165.480469 126.34375 166.792969 126.34375 168.542969 C 126.34375 170.734375 144.292969 193.0625 166.1875 218.894531 C 195.085938 253.480469 208.660156 266.179688 216.101562 266.179688 C 222.671875 266.179688 231.429688 273.621094 243.6875 288.945312 C 265.582031 316.964844 262.953125 323.972656 240.625 297.703125 C 231.867188 287.632812 223.109375 279.3125 221.359375 279.3125 C 214.789062 279.3125 218.730469 289.382812 232.304688 306.019531 C 239.746094 315.214844 244.5625 324.410156 242.8125 326.160156 C 241.5 327.910156 237.121094 325.285156 234.054688 320.46875 C 219.605469 299.890625 210.847656 291.132812 205.59375 292.886719 C 202.09375 294.199219 205.59375 302.082031 215.664062 315.214844 C 224.421875 326.597656 229.675781 336.667969 227.925781 337.980469 C 220.917969 341.921875 191.144531 296.828125 193.335938 285.878906 C 194.648438 278 190.707031 271.433594 177.570312 258.734375 L 160.058594 242.097656 L 172.316406 258.296875 C 183.703125 274.496094 184.140625 274.933594 174.945312 274.933594 C 169.691406 274.933594 156.554688 270.558594 145.609375 265.304688 C 110.578125 249.105469 87.375 206.199219 93.503906 167.667969 C 96.570312 146.652344 117.148438 111.628906 129.84375 104.621094 C 137.726562 100.683594 140.792969 103.308594 156.554688 130.015625 Z M 156.554688 130.015625 " fill-opacity="1" fill-rule="nonzero"/></svg>